<svg width="374.4" height="152.4" viewBox="-3.1999999999999993 -12.4 394.40040971227796 172.4" xmlns="http://www.w3.org/2000/svg"><g id="svgGroup" stroke-linecap="round" fill-rule="evenodd" font-size="9pt" stroke="#000" stroke-width="0.15mm" fill="#000" style="stroke:#000;stroke-width:0.15mm;fill:#000"><path d="M 24 143.8 L 18 152.4 L 0 141.2 L 9.4 127.6 L 9.4 0 L 31 0 L 31 55 A 25.376 25.376 0 0 1 35.244 51.964 Q 37.323 50.763 39.824 49.755 A 44.988 44.988 0 0 1 41 49.3 Q 47.2 47 54 47 A 55.369 55.369 0 0 1 64.138 47.867 Q 74.546 49.808 80.7 56.1 Q 89.6 65.2 91.4 80.8 Q 92 86 92.2 90.4 Q 92.4 94.8 92.4 99.4 A 107.712 107.712 0 0 1 92.245 105.069 A 125.548 125.548 0 0 1 92.1 107.4 Q 91.8 111.6 91.4 116.6 A 48.467 48.467 0 0 1 88.951 128.462 A 35.703 35.703 0 0 1 80.2 142.4 A 31.902 31.902 0 0 1 66.242 150.26 Q 61.222 151.674 55.222 151.939 A 63.932 63.932 0 0 1 52.4 152 A 41.072 41.072 0 0 1 45.742 151.487 A 29.601 29.601 0 0 1 38.8 149.5 A 45.09 45.09 0 0 1 31.79 145.745 A 38.695 38.695 0 0 1 28.6 143.4 Q 25.832 141.423 24.041 143.746 A 5.145 5.145 0 0 0 24 143.8 Z M 31 81.8 L 31 117.4 A 17.745 17.745 0 0 0 31.825 122.934 A 14.496 14.496 0 0 0 36 129.3 Q 40.193 133.074 47.48 133.683 A 35.074 35.074 0 0 0 50.4 133.8 A 31.595 31.595 0 0 0 55.687 133.389 Q 61.866 132.338 65.1 128.6 A 21.117 21.117 0 0 0 70.198 116.228 A 25.877 25.877 0 0 0 70.2 116.2 Q 71 108 71 99.6 Q 71 91.2 70.2 83 A 22.189 22.189 0 0 0 68.434 75.787 A 19.753 19.753 0 0 0 65 70.5 A 13.998 13.998 0 0 0 59.277 66.756 Q 56.981 65.919 54.137 65.599 A 33.418 33.418 0 0 0 50.4 65.4 A 34.255 34.255 0 0 0 44.986 65.799 Q 39.307 66.71 35.9 69.7 A 14.028 14.028 0 0 0 31.356 77.85 A 20.877 20.877 0 0 0 31 81.8 Z" id="0" vector-effect="non-scaling-stroke"/><path d="M 141 150 L 119.8 150 L 119.8 75.2 L 108.4 58.4 L 126.8 46.8 L 134.4 58.2 Q 135.486 59.648 136.571 59.785 A 1.813 1.813 0 0 0 136.8 59.8 Q 137.955 59.8 139.295 58.503 A 8.945 8.945 0 0 0 139.4 58.4 A 37.236 37.236 0 0 1 146.348 53.187 A 49.447 49.447 0 0 1 152.6 50.1 A 41.191 41.191 0 0 1 161.101 47.677 Q 166.025 46.8 171.8 46.8 L 174.4 46.8 L 174.4 67.2 A 78.724 78.724 0 0 0 165.414 67.676 Q 156.149 68.744 150.58 72.211 A 20.295 20.295 0 0 0 149 73.3 A 19.477 19.477 0 0 0 141.125 87.42 A 26.016 26.016 0 0 0 141 90 L 141 150 Z" id="1" vector-effect="non-scaling-stroke"/><path d="M 214.555 150.976 A 54.023 54.023 0 0 0 226.4 152.2 A 66.176 66.176 0 0 0 228.248 152.174 Q 234.644 151.996 240.03 150.566 A 34.342 34.342 0 0 0 255.2 142.3 A 40.173 40.173 0 0 0 262.48 133.039 A 42.71 42.71 0 0 0 267.6 117.4 Q 268.8 107.8 268.8 99.8 Q 268.8 91.6 267.6 81.8 A 49.537 49.537 0 0 0 267.412 80.387 A 39.066 39.066 0 0 0 255.3 56.8 Q 244.8 47 226.4 47 A 65.363 65.363 0 0 0 225.077 47.013 Q 207.819 47.363 197.8 56.9 A 40.173 40.173 0 0 0 190.52 66.161 A 42.71 42.71 0 0 0 185.4 81.8 A 208.614 208.614 0 0 0 184.992 85.466 A 171.187 171.187 0 0 0 184.5 91.2 Q 184.2 95.6 184.2 99.8 Q 184.2 107.8 185.4 117.4 Q 187.2 132.4 197.7 142.3 Q 204.509 148.72 214.555 150.976 Z M 226.4 134.2 A 26.842 26.842 0 0 0 232.309 133.59 Q 236.218 132.708 239.075 130.55 A 15.584 15.584 0 0 0 241.3 128.5 Q 246.4 122.8 247.2 115.2 Q 248 106.8 248 99.8 Q 248 92.8 247.2 84.2 Q 246.4 76.4 241.3 70.8 A 16.353 16.353 0 0 0 233.339 66.054 Q 230.666 65.32 227.462 65.217 A 32.975 32.975 0 0 0 226.4 65.2 A 25.385 25.385 0 0 0 220.297 65.892 A 17.257 17.257 0 0 0 211.7 70.8 Q 206.4 76.4 205.8 84.2 A 174.805 174.805 0 0 0 205.267 91.528 Q 205.089 95.035 205.089 98.225 A 110.293 110.293 0 0 0 205.1 99.8 Q 205.2 106.8 206 115.2 Q 206.8 122.8 211.9 128.5 A 16.571 16.571 0 0 0 220.882 133.629 A 25.195 25.195 0 0 0 226.4 134.2 Z" id="2" vector-effect="non-scaling-stroke"/><path d="M 316 150 L 294.4 150 L 294.4 49.2 L 316 49.2 L 316 55 A 33.01 33.01 0 0 1 321.895 51.183 A 42.673 42.673 0 0 1 326.7 49.1 Q 333 46.8 340.6 46.8 A 44.396 44.396 0 0 1 350.42 47.844 A 36.035 36.035 0 0 1 358.1 50.5 Q 365.8 54.2 370.1 61.1 A 27.837 27.837 0 0 1 373.795 70.858 A 38.124 38.124 0 0 1 374.4 77.8 L 374.4 150 L 352.8 150 L 352.8 83 Q 352.8 76.66 350.099 72.581 A 13.455 13.455 0 0 0 348.5 70.6 A 12.801 12.801 0 0 0 343.826 67.631 Q 340.075 66.2 334.6 66.2 A 30.708 30.708 0 0 0 329.35 66.619 Q 326.523 67.11 324.286 68.178 A 14.067 14.067 0 0 0 320.7 70.6 A 14.336 14.336 0 0 0 316.555 77.925 A 21.824 21.824 0 0 0 316 83 L 316 150 Z" id="3" vector-effect="non-scaling-stroke"/></g></svg>